<mxfile host="Electron" modified="2024-04-22T12:35:02.539Z" agent="Mozilla/5.0 (Windows NT 10.0; Win64; x64) AppleWebKit/537.36 (KHTML, like Gecko) draw.io/24.2.5 Chrome/120.0.6099.109 Electron/28.1.0 Safari/537.36" etag="RMIaiN6nGZPL4FEsYfgC" version="24.2.5" type="device">
  <diagram name="Page-1" id="woI45--M-jlZ030Deqb1">
    <mxGraphModel dx="1714" dy="1616" grid="1" gridSize="10" guides="1" tooltips="1" connect="1" arrows="1" fold="1" page="1" pageScale="1" pageWidth="850" pageHeight="1100" math="0" shadow="0">
      <root>
        <mxCell id="0" />
        <mxCell id="1" parent="0" />
        <mxCell id="5_ZHbZY5rUnd68QR8ZyK-2" value="BORROWER" style="swimlane;childLayout=stackLayout;horizontal=1;startSize=50;horizontalStack=0;rounded=1;fontSize=14;fontStyle=0;strokeWidth=2;resizeParent=0;resizeLast=1;shadow=0;dashed=0;align=center;arcSize=4;whiteSpace=wrap;html=1;" vertex="1" parent="1">
          <mxGeometry x="30" y="10" width="160" height="160" as="geometry" />
        </mxCell>
        <mxCell id="5_ZHbZY5rUnd68QR8ZyK-3" value="Borrower_ID&lt;div&gt;Name&lt;/div&gt;&lt;div&gt;Email&lt;/div&gt;&lt;div&gt;Contact&lt;/div&gt;&lt;div&gt;Address&lt;/div&gt;" style="align=left;strokeColor=none;fillColor=none;spacingLeft=4;fontSize=12;verticalAlign=top;resizable=0;rotatable=0;part=1;html=1;" vertex="1" parent="5_ZHbZY5rUnd68QR8ZyK-2">
          <mxGeometry y="50" width="160" height="110" as="geometry" />
        </mxCell>
        <mxCell id="5_ZHbZY5rUnd68QR8ZyK-4" value="LOAN REQUEST" style="swimlane;childLayout=stackLayout;horizontal=1;startSize=50;horizontalStack=0;rounded=1;fontSize=14;fontStyle=0;strokeWidth=2;resizeParent=0;resizeLast=1;shadow=0;dashed=0;align=center;arcSize=4;whiteSpace=wrap;html=1;" vertex="1" parent="1">
          <mxGeometry x="290" width="160" height="150" as="geometry" />
        </mxCell>
        <mxCell id="5_ZHbZY5rUnd68QR8ZyK-5" value="Loan_request_ID&lt;div&gt;Borrower_id&lt;/div&gt;&lt;div&gt;deadline&lt;/div&gt;&lt;div&gt;total_amount&lt;/div&gt;&lt;div&gt;payback_record&lt;/div&gt;" style="align=left;strokeColor=none;fillColor=none;spacingLeft=4;fontSize=12;verticalAlign=top;resizable=0;rotatable=0;part=1;html=1;" vertex="1" parent="5_ZHbZY5rUnd68QR8ZyK-4">
          <mxGeometry y="50" width="160" height="100" as="geometry" />
        </mxCell>
        <mxCell id="5_ZHbZY5rUnd68QR8ZyK-6" value="LOAN" style="swimlane;childLayout=stackLayout;horizontal=1;startSize=50;horizontalStack=0;rounded=1;fontSize=14;fontStyle=0;strokeWidth=2;resizeParent=0;resizeLast=1;shadow=0;dashed=0;align=center;arcSize=4;whiteSpace=wrap;html=1;" vertex="1" parent="1">
          <mxGeometry x="550" width="160" height="120" as="geometry" />
        </mxCell>
        <mxCell id="5_ZHbZY5rUnd68QR8ZyK-7" value="Loan_id&lt;div&gt;loan_request_id&lt;/div&gt;&lt;div&gt;intermidiary_name&lt;/div&gt;&lt;div&gt;intermidiary_address&lt;/div&gt;" style="align=left;strokeColor=none;fillColor=none;spacingLeft=4;fontSize=12;verticalAlign=top;resizable=0;rotatable=0;part=1;html=1;" vertex="1" parent="5_ZHbZY5rUnd68QR8ZyK-6">
          <mxGeometry y="50" width="160" height="70" as="geometry" />
        </mxCell>
        <mxCell id="5_ZHbZY5rUnd68QR8ZyK-8" value="PAYMENT" style="swimlane;childLayout=stackLayout;horizontal=1;startSize=50;horizontalStack=0;rounded=1;fontSize=14;fontStyle=0;strokeWidth=2;resizeParent=0;resizeLast=1;shadow=0;dashed=0;align=center;arcSize=4;whiteSpace=wrap;html=1;" vertex="1" parent="1">
          <mxGeometry x="300" y="160" width="160" height="120" as="geometry" />
        </mxCell>
        <mxCell id="5_ZHbZY5rUnd68QR8ZyK-9" value="Payment_id&lt;div&gt;loan_id&lt;/div&gt;&lt;div&gt;payment_date&lt;/div&gt;" style="align=left;strokeColor=none;fillColor=none;spacingLeft=4;fontSize=12;verticalAlign=top;resizable=0;rotatable=0;part=1;html=1;" vertex="1" parent="5_ZHbZY5rUnd68QR8ZyK-8">
          <mxGeometry y="50" width="160" height="70" as="geometry" />
        </mxCell>
        <mxCell id="5_ZHbZY5rUnd68QR8ZyK-10" value="COMMITMENT" style="swimlane;childLayout=stackLayout;horizontal=1;startSize=50;horizontalStack=0;rounded=1;fontSize=14;fontStyle=0;strokeWidth=2;resizeParent=0;resizeLast=1;shadow=0;dashed=0;align=center;arcSize=4;whiteSpace=wrap;html=1;" vertex="1" parent="1">
          <mxGeometry x="510" y="330" width="160" height="120" as="geometry" />
        </mxCell>
        <mxCell id="5_ZHbZY5rUnd68QR8ZyK-11" value="Commitment_id&lt;div&gt;lender_id&lt;/div&gt;&lt;div&gt;loan_id&lt;/div&gt;&lt;div&gt;commited_amount&lt;/div&gt;" style="align=left;strokeColor=none;fillColor=none;spacingLeft=4;fontSize=12;verticalAlign=top;resizable=0;rotatable=0;part=1;html=1;" vertex="1" parent="5_ZHbZY5rUnd68QR8ZyK-10">
          <mxGeometry y="50" width="160" height="70" as="geometry" />
        </mxCell>
        <mxCell id="5_ZHbZY5rUnd68QR8ZyK-15" value="TRUST" style="swimlane;childLayout=stackLayout;horizontal=1;startSize=50;horizontalStack=0;rounded=1;fontSize=14;fontStyle=0;strokeWidth=2;resizeParent=0;resizeLast=1;shadow=0;dashed=0;align=center;arcSize=4;whiteSpace=wrap;html=1;" vertex="1" parent="1">
          <mxGeometry x="265" y="610" width="175" height="120" as="geometry" />
        </mxCell>
        <mxCell id="5_ZHbZY5rUnd68QR8ZyK-16" value="Trust_id&lt;div&gt;lender_id&lt;/div&gt;&lt;div&gt;borrower_id&lt;/div&gt;&lt;div&gt;trust_value&lt;/div&gt;" style="align=left;strokeColor=none;fillColor=none;spacingLeft=4;fontSize=12;verticalAlign=top;resizable=0;rotatable=0;part=1;html=1;" vertex="1" parent="5_ZHbZY5rUnd68QR8ZyK-15">
          <mxGeometry y="50" width="175" height="70" as="geometry" />
        </mxCell>
        <mxCell id="5_ZHbZY5rUnd68QR8ZyK-17" value="LENDER" style="swimlane;childLayout=stackLayout;horizontal=1;startSize=50;horizontalStack=0;rounded=1;fontSize=14;fontStyle=0;strokeWidth=2;resizeParent=0;resizeLast=1;shadow=0;dashed=0;align=center;arcSize=4;whiteSpace=wrap;html=1;" vertex="1" parent="1">
          <mxGeometry x="250" y="390" width="160" height="120" as="geometry" />
        </mxCell>
        <mxCell id="5_ZHbZY5rUnd68QR8ZyK-18" value="Lender_id&lt;div&gt;name&lt;/div&gt;&lt;div&gt;email&lt;/div&gt;&lt;div&gt;address&lt;/div&gt;" style="align=left;strokeColor=none;fillColor=none;spacingLeft=4;fontSize=12;verticalAlign=top;resizable=0;rotatable=0;part=1;html=1;" vertex="1" parent="5_ZHbZY5rUnd68QR8ZyK-17">
          <mxGeometry y="50" width="160" height="70" as="geometry" />
        </mxCell>
        <mxCell id="5_ZHbZY5rUnd68QR8ZyK-19" value="" style="edgeStyle=entityRelationEdgeStyle;fontSize=12;html=1;endArrow=ERoneToMany;rounded=0;" edge="1" parent="1">
          <mxGeometry width="100" height="100" relative="1" as="geometry">
            <mxPoint x="190" y="125" as="sourcePoint" />
            <mxPoint x="290" y="25" as="targetPoint" />
          </mxGeometry>
        </mxCell>
        <mxCell id="5_ZHbZY5rUnd68QR8ZyK-20" value="" style="edgeStyle=entityRelationEdgeStyle;fontSize=12;html=1;endArrow=ERmandOne;startArrow=ERmandOne;rounded=0;" edge="1" parent="1">
          <mxGeometry width="100" height="100" relative="1" as="geometry">
            <mxPoint x="450" y="120" as="sourcePoint" />
            <mxPoint x="550" y="20" as="targetPoint" />
            <Array as="points">
              <mxPoint x="450" y="120" />
            </Array>
          </mxGeometry>
        </mxCell>
        <mxCell id="5_ZHbZY5rUnd68QR8ZyK-21" value="" style="edgeStyle=entityRelationEdgeStyle;fontSize=12;html=1;endArrow=ERoneToMany;rounded=0;entryX=0;entryY=0.75;entryDx=0;entryDy=0;" edge="1" parent="1" target="5_ZHbZY5rUnd68QR8ZyK-7">
          <mxGeometry width="100" height="100" relative="1" as="geometry">
            <mxPoint x="460" y="220" as="sourcePoint" />
            <mxPoint x="560" y="120" as="targetPoint" />
          </mxGeometry>
        </mxCell>
        <mxCell id="5_ZHbZY5rUnd68QR8ZyK-22" value="" style="edgeStyle=entityRelationEdgeStyle;fontSize=12;html=1;endArrow=ERoneToMany;rounded=0;" edge="1" parent="1">
          <mxGeometry width="100" height="100" relative="1" as="geometry">
            <mxPoint x="410" y="450" as="sourcePoint" />
            <mxPoint x="510" y="350" as="targetPoint" />
          </mxGeometry>
        </mxCell>
        <mxCell id="5_ZHbZY5rUnd68QR8ZyK-23" value="" style="edgeStyle=entityRelationEdgeStyle;fontSize=12;html=1;endArrow=ERoneToMany;rounded=0;" edge="1" parent="1" source="5_ZHbZY5rUnd68QR8ZyK-16">
          <mxGeometry width="100" height="100" relative="1" as="geometry">
            <mxPoint x="10" y="610" as="sourcePoint" />
            <mxPoint x="250" y="430" as="targetPoint" />
          </mxGeometry>
        </mxCell>
        <mxCell id="5_ZHbZY5rUnd68QR8ZyK-25" value="" style="edgeStyle=entityRelationEdgeStyle;fontSize=12;html=1;endArrow=ERoneToMany;rounded=0;" edge="1" parent="1">
          <mxGeometry width="100" height="100" relative="1" as="geometry">
            <mxPoint x="410" y="420" as="sourcePoint" />
            <mxPoint x="30" y="160" as="targetPoint" />
          </mxGeometry>
        </mxCell>
      </root>
    </mxGraphModel>
  </diagram>
</mxfile>
